<svg width="101" height="87" viewBox="0 0 101 87" fill="none" xmlns="http://www.w3.org/2000/svg">
<path d="M65.2292 17.1458C62.9146 17.1458 60.9325 16.321 59.2828 14.6713C57.6331 13.0217 56.8097 11.041 56.8125 8.72917C56.8125 6.41459 57.6373 4.43247 59.287 2.7828C60.9367 1.13313 62.9174 0.309702 65.2292 0.312507C67.5438 0.312507 69.5259 1.13734 71.1755 2.78701C72.8252 4.43667 73.6486 6.4174 73.6458 8.72917C73.6458 11.0438 72.821 13.0259 71.1713 14.6755C69.5217 16.3252 67.541 17.1486 65.2292 17.1458ZM50.5 73.9583C49.3076 73.9583 48.3075 73.5543 47.4995 72.7463C46.6915 71.9383 46.2889 70.9396 46.2917 69.75V52.9167L32.825 41.1333C31.8431 40.2917 31.1767 39.4149 30.826 38.5031C30.4753 37.5913 30.3 36.5042 30.3 35.2417C30.3 33.9792 30.4936 32.9089 30.8808 32.0307C31.2679 31.1526 31.916 30.259 32.825 29.35L44.6083 17.5667C45.5201 16.6549 46.4853 16.0054 47.5037 15.6182C48.5221 15.231 49.6611 15.0389 50.9208 15.0417C52.1833 15.0417 53.3238 15.2353 54.3422 15.6224C55.3606 16.0096 56.3243 16.6577 57.2333 17.5667L65.2292 25.5625C66.7722 27.1056 68.4738 28.4031 70.3339 29.4552C72.194 30.5073 74.2799 31.2087 76.5917 31.5594C77.7139 31.7698 78.6257 32.2608 79.3271 33.0323C80.0285 33.8038 80.3792 34.7156 80.3792 35.7677C80.3792 37.1004 79.9233 38.1707 79.0115 38.9787C78.0997 39.7867 77.0476 40.1191 75.8552 39.9761C72.4885 39.4851 69.3856 38.5031 66.5464 37.0302C63.7072 35.5573 61.1639 33.6986 58.9167 31.4542L55.55 28.0875L45.45 38.1875L52.3938 45.4469C53.1653 46.2184 53.7446 47.1134 54.1318 48.1318C54.519 49.1502 54.7111 50.1841 54.7083 51.2333V69.75C54.7083 70.9424 54.3043 71.9426 53.4963 72.7505C52.6883 73.5585 51.6896 73.9612 50.5 73.9583ZM21.0417 86.5833C15.0799 86.5833 10.0818 84.5662 6.04738 80.5318C2.01299 76.4974 -0.00280263 71.5007 2.92448e-06 65.5417C2.92448e-06 59.5799 2.0172 54.5818 6.05159 50.5474C10.086 46.513 15.0827 44.4972 21.0417 44.5C27.0035 44.5 32.0016 46.5172 36.036 50.5516C40.0704 54.586 42.0861 59.5827 42.0833 65.5417C42.0833 71.5035 40.0661 76.5016 36.0318 80.536C31.9974 84.5704 27.0007 86.5862 21.0417 86.5833ZM21.0417 80.2708C25.0396 80.2708 28.4946 78.8148 31.4068 75.9026C34.319 72.9904 35.7736 69.5368 35.7708 65.5417C35.7708 61.5438 34.3148 58.0887 31.4026 55.1766C28.4904 52.2644 25.0368 50.8097 21.0417 50.8125C17.0438 50.8125 13.5887 52.2686 10.6765 55.1808C7.76438 58.0929 6.3097 61.5466 6.3125 65.5417C6.3125 69.5396 7.76859 72.9946 10.6808 75.9068C13.5929 78.819 17.0466 80.2737 21.0417 80.2708ZM79.9583 86.5833C73.9965 86.5833 68.9984 84.5662 64.9641 80.5318C60.9297 76.4974 58.9139 71.5007 58.9167 65.5417C58.9167 59.5799 60.9339 54.5818 64.9683 50.5474C69.0026 46.513 73.9993 44.4972 79.9583 44.5C85.9201 44.5 90.9182 46.5172 94.9526 50.5516C98.987 54.586 101.003 59.5827 101 65.5417C101 71.5035 98.9828 76.5016 94.9484 80.536C90.914 84.5704 85.9173 86.5862 79.9583 86.5833ZM79.9583 80.2708C83.9563 80.2708 87.4113 78.8148 90.3235 75.9026C93.2356 72.9904 94.6903 69.5368 94.6875 65.5417C94.6875 61.5438 93.2314 58.0887 90.3193 55.1766C87.4071 52.2644 83.9534 50.8097 79.9583 50.8125C75.9604 50.8125 72.5054 52.2686 69.5932 55.1808C66.681 58.0929 65.2264 61.5466 65.2292 65.5417C65.2292 69.5396 66.6852 72.9946 69.5974 75.9068C72.5096 78.819 75.9632 80.2737 79.9583 80.2708Z" fill="#333333"/>
</svg>
