<svg width="106" height="61" viewBox="0 0 106 61" fill="none" xmlns="http://www.w3.org/2000/svg">
<path d="M99.375 20.375H87.4955L69.5625 2.44199C68.9495 1.82412 68.2199 1.33426 67.4159 1.00088C66.612 0.667502 65.7498 0.497253 64.8795 0.500034H18.3347C17.2465 0.502048 16.1756 0.772079 15.2165 1.28626C14.2575 1.80045 13.4399 2.54295 12.8359 3.44816L0.554844 21.8491C0.193996 22.3944 0.00108011 23.0336 0 23.6875L0 43.5625C0 45.3196 0.697989 47.0047 1.94042 48.2471C3.18285 49.4895 4.86794 50.1875 6.625 50.1875H13.6641C14.3938 53.0377 16.0514 55.5638 18.3755 57.3678C20.6995 59.1718 23.5579 60.151 26.5 60.151C29.4421 60.151 32.3005 59.1718 34.6245 57.3678C36.9486 55.5638 38.6062 53.0377 39.3359 50.1875H66.6641C67.3938 53.0377 69.0514 55.5638 71.3755 57.3678C73.6995 59.1718 76.5579 60.151 79.5 60.151C82.4421 60.151 85.3005 59.1718 87.6245 57.3678C89.9486 55.5638 91.6062 53.0377 92.3359 50.1875H99.375C101.132 50.1875 102.817 49.4895 104.06 48.2471C105.302 47.0047 106 45.3196 106 43.5625V27C106 25.243 105.302 23.5579 104.06 22.3155C102.817 21.073 101.132 20.375 99.375 20.375ZM18.3347 7.12503H64.8795L78.1295 20.375H9.52344L18.3347 7.12503ZM26.5 53.5C25.1897 53.5 23.9088 53.1115 22.8193 52.3835C21.7299 51.6556 20.8807 50.6209 20.3793 49.4103C19.8779 48.1998 19.7467 46.8677 20.0023 45.5826C20.2579 44.2974 20.8889 43.117 21.8154 42.1905C22.7419 41.2639 23.9224 40.633 25.2075 40.3773C26.4927 40.1217 27.8247 40.2529 29.0353 40.7543C30.2458 41.2558 31.2805 42.1049 32.0085 43.1944C32.7365 44.2839 33.125 45.5647 33.125 46.875C33.125 48.6321 32.427 50.3172 31.1846 51.5596C29.9422 52.802 28.2571 53.5 26.5 53.5ZM79.5 53.5C78.1897 53.5 76.9088 53.1115 75.8193 52.3835C74.7299 51.6556 73.8807 50.6209 73.3793 49.4103C72.8779 48.1998 72.7467 46.8677 73.0023 45.5826C73.2579 44.2974 73.8889 43.117 74.8154 42.1905C75.7419 41.2639 76.9224 40.633 78.2075 40.3773C79.4927 40.1217 80.8247 40.2529 82.0353 40.7543C83.2458 41.2558 84.2805 42.1049 85.0085 43.1944C85.7365 44.2839 86.125 45.5647 86.125 46.875C86.125 48.6321 85.427 50.3172 84.1846 51.5596C82.9422 52.802 81.2571 53.5 79.5 53.5Z" fill="#333333"/>
</svg>
