<svg width="100" height="100" viewBox="0 0 100 100" fill="none" xmlns="http://www.w3.org/2000/svg">
<path d="M66.6666 62.5C83.3708 62.2292 95.8333 49.8625 95.8333 33.3334C95.8333 20.7834 91.6791 24.9375 87.4999 29.1667C83.3708 33.25 74.9999 41.6667 74.9999 41.6667L58.3333 25C58.3333 25 66.7499 16.6292 70.8333 12.5C75.0624 8.32085 75.0624 4.16669 66.6666 4.16669C50.1374 4.16669 37.7208 16.6292 37.4999 33.3334C37.6749 37.4 37.4999 45.8334 37.4999 45.8334C29.6458 53.7375 19.4166 63.9709 12.4999 70.8334C0.283262 83.1 16.8999 99.7167 29.1666 87.5C36.0416 80.575 46.3041 70.3125 54.1666 62.5C54.1666 62.5 62.5999 62.325 66.6666 62.5Z" stroke="#444444" stroke-width="8.33333"/>
</svg>
