<svg width="106" height="71" viewBox="0 0 106 71" fill="none" xmlns="http://www.w3.org/2000/svg">
<path d="M46.375 0.0624512C44.1722 0.0624512 42.4 1.75522 42.4 3.85933C42.4 5.96343 44.1722 7.6562 46.375 7.6562H55.9316L58.6478 12.4498L42.4 25.375L34.8972 18.2083C32.9097 16.3099 30.21 15.2499 27.3944 15.2499H10.6C7.66844 15.2499 5.3 17.5123 5.3 20.3125V25.375H21.2C35.8413 25.375 47.7 36.7023 47.7 50.6874C47.7 52.4277 47.5178 54.1205 47.17 55.7499H58.83C58.4822 54.1205 58.3 52.4277 58.3 50.6874C58.3 42.4292 62.4406 35.0886 68.8503 30.4691L71.4009 34.9937C66.6475 38.7115 63.6 44.3593 63.6 50.6874C63.6 61.8724 73.0903 70.9374 84.8 70.9374C96.5097 70.9374 106 61.8724 106 50.6874C106 39.5025 96.5097 30.4374 84.8 30.4374C82.5641 30.4374 80.4109 30.7697 78.3903 31.3867L69.2644 15.2499H79.5C82.4316 15.2499 84.8 12.9876 84.8 10.1875V5.12495C84.8 2.32476 82.4316 0.0624512 79.5 0.0624512H76.1213C74.8791 0.0624512 73.6866 0.47378 72.7259 1.23315L64.8753 7.48218L62.5566 3.3689C61.3972 1.32808 59.1613 0.0466309 56.7266 0.0466309H46.375V0.0624512ZM76.6347 44.2328L81.3053 52.491C82.3488 54.3419 84.7669 55.0222 86.6881 54.0255C88.6094 53.0289 89.3381 50.7191 88.2947 48.8839L83.6241 40.6257C84.005 40.5783 84.4025 40.5624 84.8 40.5624C90.6466 40.5624 95.4 45.1029 95.4 50.6874C95.4 56.272 90.6466 60.8124 84.8 60.8124C78.9534 60.8124 74.2 56.272 74.2 50.6874C74.2 48.2353 75.1109 45.9888 76.6347 44.2328ZM31.0216 54.4843C29.4481 58.2021 25.6388 60.8124 21.2 60.8124C15.3534 60.8124 10.6 56.272 10.6 50.6874C10.6 45.1029 15.3534 40.5624 21.2 40.5624C25.6553 40.5624 29.4647 43.1728 31.0216 46.8906H42.0191C40.1641 37.5249 31.5516 30.4374 21.2 30.4374C9.49031 30.4374 0 39.5025 0 50.6874C0 61.8724 9.49031 70.9374 21.2 70.9374C31.5516 70.9374 40.1641 63.8499 42.0356 54.4843H31.0216ZM21.2 55.7499C22.6056 55.7499 23.9537 55.2166 24.9477 54.2672C25.9416 53.3178 26.5 52.0301 26.5 50.6874C26.5 49.3448 25.9416 48.0571 24.9477 47.1077C23.9537 46.1583 22.6056 45.6249 21.2 45.6249C19.7944 45.6249 18.4463 46.1583 17.4523 47.1077C16.4584 48.0571 15.9 49.3448 15.9 50.6874C15.9 52.0301 16.4584 53.3178 17.4523 54.2672C18.4463 55.2166 19.7944 55.7499 21.2 55.7499Z" fill="#333333"/>
</svg>
