<svg width="100" height="100" viewBox="0 0 100 100" fill="none" xmlns="http://www.w3.org/2000/svg">
<path d="M49.1094 9.375C51.2188 9.375 53.1719 10.2594 54.6313 11.7375C55.8373 12.9792 56.6588 14.543 56.9969 16.2406C56.9969 16.2406 57.2375 18.8 57.5469 21.875H51.4313C50.6438 21.875 50 22.575 50 23.4375C50 24.3 50.6438 25 51.4313 25H57.8687C57.9781 26.0844 58.0938 27.1562 58.2 28.125H51.4313C50.6438 28.125 50 28.825 50 29.6875C50 30.55 50.6438 31.25 51.4313 31.25H58.575C59.0594 34.1937 63.8187 36.7531 65.4562 37.6344L65.7875 37.8125C66.5219 38.2281 67.8156 38.675 69.4125 39.2281C75.9187 41.4781 87.5 45.4812 87.5 56.25V63.15C87.5 63.8781 87.3438 64.5719 87.0938 65.2062C86.2875 67.2125 84.3469 68.7219 82.0938 68.75H87.625C89.2813 68.75 90.625 70.1531 90.625 71.875C90.625 73.5969 89.2813 75 87.625 75H81.0938C82.6457 76.5206 83.7096 78.469 84.1498 80.5967C84.5899 82.7243 84.3864 84.9349 83.5652 86.9465C82.744 88.958 81.3423 90.6794 79.5388 91.8911C77.7353 93.1029 75.6118 93.75 73.4391 93.75C71.2663 93.75 69.1428 93.1029 67.3393 91.8911C65.5359 90.6794 64.1341 88.958 63.3129 86.9465C62.4917 84.9349 62.2882 82.7243 62.7284 80.5967C63.1685 78.469 64.2324 76.5206 65.7844 75H34.2125C35.7644 76.5206 36.8283 78.469 37.2685 80.5967C37.7087 82.7243 37.5052 84.9349 36.684 86.9465C35.8627 88.958 34.461 90.6794 32.6575 91.8911C30.8541 93.1029 28.7305 93.75 26.5578 93.75C24.3851 93.75 22.2616 93.1029 20.4581 91.8911C18.6546 90.6794 17.2529 88.958 16.4317 86.9465C15.6104 84.9349 15.4069 82.7243 15.8471 80.5967C16.2873 78.469 17.3512 76.5206 18.9031 75H12.375C10.7188 75 9.375 73.5969 9.375 71.875C9.375 70.1531 10.7188 68.75 12.375 68.75H14.9188C13.8054 68.7442 12.7197 68.403 11.8032 67.7708C10.8867 67.1387 10.1821 66.2449 9.78125 65.2062C9.51763 64.5525 9.3798 63.8549 9.375 63.15V15.9375C9.375 12.5625 12.5344 9.85313 16.625 9.4625C16.7625 9.4625 16.8937 9.44687 17.0281 9.43125C17.1607 9.41284 17.2943 9.4024 17.4281 9.4V9.375H49.1094ZM17.4719 12.5313L17.3812 12.5406H17.3594C17.1799 12.5634 16.9995 12.579 16.8187 12.5875C13.7562 12.9187 12.5 14.7719 12.5 15.9375V18.75H28.6438C29.5656 18.75 30.3 18.45 30.7438 18.0937C31.1875 17.7406 31.25 17.4375 31.25 17.2969V12.5H20.5531V12.5313H17.4719ZM82.025 65.625C82.8875 65.625 83.7937 65.025 84.1906 64.0469C84.3074 63.762 84.3699 63.4578 84.375 63.15V59.375H12.5V63.15C12.5 63.4281 12.5625 63.7344 12.6875 64.0562L12.7 64.0875C13.0438 64.9906 13.9125 65.625 15.0063 65.625H82.025ZM31.25 82.8125C31.25 81.5693 30.7561 80.377 29.8771 79.4979C28.998 78.6189 27.8057 78.125 26.5625 78.125C25.3193 78.125 24.127 78.6189 23.2479 79.4979C22.3689 80.377 21.875 81.5693 21.875 82.8125C21.875 84.0557 22.3689 85.248 23.2479 86.1271C24.127 87.0061 25.3193 87.5 26.5625 87.5C27.8057 87.5 28.998 87.0061 29.8771 86.1271C30.7561 85.248 31.25 84.0557 31.25 82.8125ZM73.4375 87.5C74.6807 87.5 75.873 87.0061 76.7521 86.1271C77.6311 85.248 78.125 84.0557 78.125 82.8125C78.125 81.5693 77.6311 80.377 76.7521 79.4979C75.873 78.6189 74.6807 78.125 73.4375 78.125C72.1943 78.125 71.002 78.6189 70.1229 79.4979C69.2439 80.377 68.75 81.5693 68.75 82.8125C68.75 84.0557 69.2439 85.248 70.1229 86.1271C71.002 87.0061 72.1943 87.5 73.4375 87.5Z" fill="#333333"/>
</svg>
