<?xml version="1.0" encoding="utf-8"?>
<!-- Svg Vector Icons : http://www.onlinewebfonts.com/icon -->
<!DOCTYPE svg PUBLIC "-//W3C//DTD SVG 1.1//EN" "http://www.w3.org/Graphics/SVG/1.1/DTD/svg11.dtd">
<svg version="1.1" xmlns="http://www.w3.org/2000/svg" xmlns:xlink="http://www.w3.org/1999/xlink" x="0px" y="0px" viewBox="0 0 1000 1000" enable-background="new 0 0 1000 1000" xml:space="preserve">
<metadata> Svg Vector Icons : http://www.onlinewebfonts.com/icon </metadata>
<g><g transform="translate(0.000000,511.000000) scale(0.100000,-0.100000)"><path d="M670.5,4601.3c-80-80-80-82.7-80-422c0-546.1-52.4-1709.9-96.5-2178.8c-49.6-521.3-96.5-838.4-220.6-1497.6C124.4-296.8,66.5-975.2,118.9-1300.7c35.9-226.1,160-490.9,303.4-645.3c110.3-118.6,113.1-126.9,113.1-322.7c0-201.3,0-201.3-126.9-336.5c-234.4-251-344.7-601.2-286.8-926.7c66.2-377.8,295.1-684,631.6-844c168.2-80,204.1-85.5,485.4-85.5c278.6,0,317.2,5.5,468.9,80c322.7,160,557.1,468.8,626.1,827.4l35.8,182h126.9h126.9l16.5-151.7c33.1-336.5,289.6-684,623.3-849.5c171-82.7,198.6-88.3,485.4-88.3c270.3,0,319.9,8.3,455.1,71.7c187.5,91,380.6,259.3,490.9,430.3c91,143.4,171,383.3,171,510.2c0,74.5,5.5,77.2,137.9,77.2c132.4,0,137.9-2.7,137.9-77.2c0-124.1,80-366.8,168.3-507.5c113.1-176.5,303.4-344.7,488.1-430.2c140.7-66.2,190.3-74.5,460.6-74.5c286.8,0,314.4,5.5,485.4,88.3c333.7,165.5,590.2,513,623.3,849.5l16.5,151.7H7513h132.4l16.6-148.9c44.1-339.2,311.6-700.5,637.1-860.5c151.7-74.5,190.3-80,468.8-80c281.3,0,317.2,5.5,485.4,85.5c333.7,160,568.2,468.9,631.6,844c57.9,325.4-52.4,675.7-286.8,926.7c-126.9,135.1-126.9,135.1-126.9,336.5c0,195.8,2.7,204.1,113.1,322.7c435.8,474.4,413.7,1235.6-49.6,1723.7C9109.8,224.5,8550,458.9,7317.2,709.9c-926.7,187.5-1332.1,350.3-1767.9,708.8c-107.5,88.2-256.5,231.7-328.2,317.2c-113.1,135.1-137.9,190.3-193.1,413.7c-91,380.6-88.2,915.6,8.3,1345.9c104.8,457.8,107.6,490.9,74.5,617.8c-157.2,581.9-1387.2,468.9-2093.3-193.1c-129.6-121.3-137.9-124.1-228.9-96.5c-104.8,35.9-537.8,286.8-700.5,405.4c-57.9,44.1-206.8,162.7-333.7,264.8l-228.9,187.5h-386.1H750.5L670.5,4601.3z M1478.6,3991.8c386.1-325.4,915.6-631.6,1340.4-783.3c215.1-77.2,606.7-154.4,775-154.4c91,0,104.8-11,176.5-135.1c41.4-74.5,74.5-146.2,74.5-162.7c0-41.4-223.4-115.8-344.7-115.8c-333.7,0-490.9-377.8-251-598.5c82.7-77.2,118.6-91,237.2-91c110.3,0,151.7,13.8,228.9,80c88.3,77.2,339.2,195.8,416.4,195.8c33.1,0,85.5-71.7,275.8-361.3l46.9-74.5l-173.8-137.9c-96.5-74.5-212.4-146.2-259.2-154.4c-201.3-44.1-314.4-295.1-217.9-485.4c132.4-256.5,468.9-259.2,631.6-5.5c35.9,57.9,132.4,157.2,215.1,220.6l151.7,115.8l206.8-201.3l206.8-198.6L5097,759.5c-66.2-102-146.2-198.6-176.5-215.1C4835,497.5,4755,351.3,4755,241c0-212.4,204.1-383.4,408.1-344.7c126.9,24.8,281.3,176.5,281.3,275.8c0,57.9,143.4,333.7,234.4,446.8c11,16.5,496.4-212.4,504.7-240c19.3-52.4-55.2-314.4-107.5-383.4c-173.7-220.6-5.5-554.3,278.5-554.3c129.6,0,220.6,49.6,297.9,165.5c55.2,80,63.4,118.6,49.6,231.7C6685.6-21,6729.7,241,6768.3,241c57.9,0,998.4-201.3,1172.1-251c507.5-146.2,926.7-344.7,1128-537.8c402.6-383.4,336.4-965.3-135.2-1185.9l-137.9-66.2H5003.3H1211.1l-140.7,66.2c-162.7,74.4-319.9,248.2-364,399.9c-74.5,242.7-19.3,1034.2,115.8,1698.9c204.1,1012.2,319.9,2206.4,319.9,3359.2v405.4h82.7C1285.6,4129.7,1357.3,4091.1,1478.6,3991.8z M4539.9,3920.1c8.3-8.3-2.8-91-24.8-184.8c-22.1-93.8-60.7-306.1-88.3-468.9l-44.1-297.9l-143.4,273c-190.3,355.8-212.4,375.1-474.4,391.6l-209.6,13.8l165.5,85.5c165.5,85.5,377.8,162.7,510.2,184.8C4341.4,3936.6,4523.4,3939.4,4539.9,3920.1z M8919.5-2492.1c0-91-16.5-129.6-93.8-206.8l-93.8-93.8H5003.3H1274.5l-93.8,93.8c-77.2,77.2-93.8,115.8-93.8,206.8v113.1h3916.3h3916.3V-2492.1z M836-3162.3c115.8-124.1,319.9-187.5,642.6-204.1l297.9-13.8v-71.7c0-107.5-110.3-281.3-234.4-366.8c-424.7-300.6-1003.9,129.6-841.2,623.3C739.5-3076.8,753.3-3074.1,836-3162.3z M9305.6-3195.4c49.6-143.4,22.1-347.5-63.4-477.1c-104.8-160-333.7-264.8-524-242.7c-242.7,30.4-485.4,262-488.2,463.3v71.7l297.9,13.8c322.7,16.5,526.8,80,642.6,204.1C9253.2-3074.1,9267-3076.8,9305.6-3195.4z M4313.8-3380.2c0-85.5-102.1-300.6-171-369.6c-297.9-289.6-755.7-193.1-915.6,190.3c-82.7,195.8-107.6,187.5,521.3,187.5C4060-3371.9,4313.8-3374.7,4313.8-3380.2z M6823.5-3413.3c0-74.5-82.7-245.5-160-328.2c-311.6-331-857.7-171-957,281.3l-19.3,88.3h568.2C6746.3-3371.9,6823.5-3377.4,6823.5-3413.3z"/></g></g>
</svg>