<svg width="100" height="100" viewBox="0 0 100 100" fill="none" xmlns="http://www.w3.org/2000/svg">
<path d="M49.9999 8.33331C27.0249 8.33331 8.33325 27.025 8.33325 50C8.33325 72.975 27.0249 91.6666 49.9999 91.6666C72.9749 91.6666 91.6666 72.975 91.6666 50C91.6666 27.025 72.9749 8.33331 49.9999 8.33331ZM49.9999 83.3333C31.6208 83.3333 16.6666 68.3791 16.6666 50C16.6666 31.6208 31.6208 16.6666 49.9999 16.6666C68.3791 16.6666 83.3332 31.6208 83.3332 50C83.3332 68.3791 68.3791 83.3333 49.9999 83.3333Z" fill="#444444"/>
<path d="M38.7209 32.1125L56.6084 50L38.7209 67.8875L44.6126 73.7792L68.3918 50L44.6126 26.2208L38.7209 32.1125Z" fill="#444444"/>
</svg>
