<svg width="22" height="22" viewBox="0 0 22 22" fill="none" xmlns="http://www.w3.org/2000/svg">
<g clip-path="url(#clip0_258_263)">
<path d="M14.4009 9.65082C14.4843 9.56364 14.5497 9.46084 14.5934 9.34832C14.6851 9.12514 14.6851 8.87482 14.5934 8.65165C14.5497 8.53913 14.4843 8.43633 14.4009 8.34915L11.6509 5.59915C11.4783 5.42654 11.2442 5.32957 11 5.32957C10.7559 5.32957 10.5218 5.42654 10.3492 5.59915C10.1766 5.77176 10.0796 6.00587 10.0796 6.24998C10.0796 6.49409 10.1766 6.7282 10.3492 6.90082L11.5409 8.08332H8.25004C8.00693 8.08332 7.77377 8.17989 7.60186 8.3518C7.42996 8.52371 7.33338 8.75687 7.33338 8.99998C7.33338 9.2431 7.42996 9.47626 7.60186 9.64816C7.77377 9.82007 8.00693 9.91665 8.25004 9.91665H11.5409L10.3492 11.0991C10.2633 11.1844 10.1951 11.2858 10.1486 11.3975C10.102 11.5092 10.0781 11.629 10.0781 11.75C10.0781 11.871 10.102 11.9908 10.1486 12.1025C10.1951 12.2142 10.2633 12.3156 10.3492 12.4008C10.4344 12.4867 10.5358 12.5549 10.6475 12.6015C10.7592 12.648 10.879 12.672 11 12.672C11.1211 12.672 11.2409 12.648 11.3526 12.6015C11.4643 12.5549 11.5657 12.4867 11.6509 12.4008L14.4009 9.65082ZM20.1667 8.99998C20.1667 7.18699 19.6291 5.41471 18.6218 3.90726C17.6146 2.39981 16.183 1.22489 14.508 0.531088C12.833 -0.162715 10.9899 -0.344246 9.21172 0.00945204C7.43356 0.36315 5.80021 1.23619 4.51823 2.51817C3.23625 3.80015 2.36321 5.4335 2.00951 7.21166C1.65582 8.98981 1.83735 10.8329 2.53115 12.5079C3.22495 14.1829 4.39987 15.6145 5.90732 16.6218C7.41477 17.629 9.18705 18.1666 11 18.1666C13.4312 18.1666 15.7628 17.2009 17.4819 15.4818C19.2009 13.7627 20.1667 11.4311 20.1667 8.99998ZM3.66671 8.99998C3.66671 7.54959 4.0968 6.13176 4.9026 4.9258C5.7084 3.71984 6.85371 2.77991 8.1937 2.22487C9.53369 1.66982 11.0082 1.5246 12.4307 1.80756C13.8532 2.09052 15.1599 2.78895 16.1855 3.81453C17.2111 4.84012 17.9095 6.14679 18.1925 7.56932C18.4754 8.99185 18.3302 10.4663 17.7752 11.8063C17.2201 13.1463 16.2802 14.2916 15.0742 15.0974C13.8683 15.9032 12.4504 16.3333 11 16.3333C9.05512 16.3333 7.18986 15.5607 5.81459 14.1854C4.43933 12.8102 3.66671 10.9449 3.66671 8.99998Z" fill="#252525"/>
</g>
<defs>
<clipPath id="clip0_258_263">
<rect width="22" height="22" fill="white"/>
</clipPath>
</defs>
</svg>
